{
  "accessors": [
    {
      "bufferView": 2,
      "componentType": 5126,
      "count": 3,
      "max": [
        -0.59961700439453125,
        1.2276439666748047,
        1.7760200500488281
      ],
      "min": [
        -4.2767400741577148,
        -1.2657010555267334,
        1.7760200500488281
      ],
      "type": "VEC3"
    },
    {
      "bufferView": 2,
      "byteOffset": 36,
      "componentType": 5126,
      "count": 3,
      "max": [
        0,
        -0,
        1
      ],
      "min": [
        0,
        -0,
        1
      ],
      "type": "VEC3"
    },
    {
      "bufferView": 3,
      "componentType": 5126,
      "count": 3,
      "max": [
        -0.90335613489151001,
        -0.42889147996902466,
        0,
        1
      ],
      "min": [
        -0.90335613489151001,
        -0.42889147996902466,
        0,
        1
      ],
      "type": "VEC4"
    },
    {
      "bufferView": 1,
      "componentType": 5126,
      "count": 3,
      "max": [
        1,
        1
      ],
      "min": [
        0,
        0
      ],
      "type": "VEC2"
    },
    {
      "bufferView": 0,
      "componentType": 5125,
      "count": 3,
      "max": [
        2
      ],
      "min": [
        0
      ],
      "type": "SCALAR"
    },
    {
      "bufferView": 2,
      "byteOffset": 72,
      "componentType": 5126,
      "count": 9815,
      "max": [
        2.3615341186523438,
        2.3148829936981201,
        5.285736083984375
      ],
      "min": [
        -2.0360429286956787,
        -2.3148829936981201,
        -0.058185998350381851
      ],
      "type": "VEC3"
    },
    {
      "bufferView": 2,
      "byteOffset": 117852,
      "componentType": 5126,
      "count": 9815,
      "max": [
        0.99994713068008423,
        0.99949002265930176,
        0.99988174438476562
      ],
      "min": [
        -0.99997925758361816,
        -0.99970299005508423,
        -0.99991744756698608
      ],
      "type": "VEC3"
    },
    {
      "bufferView": 3,
      "byteOffset": 48,
      "componentType": 5126,
      "count": 9815,
      "max": [
        0.99939447641372681,
        0.99990606307983398,
        0.99594992399215698,
        1
      ],
      "min": [
        -0.99972140789031982,
        -0.99970155954360962,
        -0.99931371212005615,
        -1
      ],
      "type": "VEC4"
    },
    {
      "bufferView": 1,
      "byteOffset": 24,
      "componentType": 5126,
      "count": 9815,
      "max": [
        0.99744999408721924,
        0.98953002691268921
      ],
      "min": [
        0.13905000686645508,
        0.010395999997854233
      ],
      "type": "VEC2"
    },
    {
      "bufferView": 0,
      "byteOffset": 12,
      "componentType": 5125,
      "count": 51588,
      "max": [
        9814
      ],
      "min": [
        0
      ],
      "type": "SCALAR"
    },
    {
      "bufferView": 2,
      "byteOffset": 235632,
      "componentType": 5126,
      "count": 4517,
      "max": [
        1.9572410583496094,
        2.0937690734863281,
        5.007561206817627
      ],
      "min": [
        -2.4367289543151855,
        -0.25282201170921326,
        -0.01371499989181757
      ],
      "type": "VEC3"
    },
    {
      "bufferView": 2,
      "byteOffset": 289836,
      "componentType": 5126,
      "count": 4517,
      "max": [
        0.99969363212585449,
        0.99899536371231079,
        0.99990099668502808
      ],
      "min": [
        -0.99911636114120483,
        -0.99906522035598755,
        -0.99999475479125977
      ],
      "type": "VEC3"
    },
    {
      "bufferView": 3,
      "byteOffset": 157088,
      "componentType": 5126,
      "count": 4517,
      "max": [
        0.99985998868942261,
        0.99940395355224609,
        0.99985963106155396,
        1
      ],
      "min": [
        -0.99997693300247192,
        -0.99991041421890259,
        -0.9994208812713623,
        -1
      ],
      "type": "VEC4"
    },
    {
      "bufferView": 1,
      "byteOffset": 78544,
      "componentType": 5126,
      "count": 4517,
      "max": [
        0.7005000114440918,
        0.98530000448226929
      ],
      "min": [
        0.0019000000320374966,
        0.022190000861883163
      ],
      "type": "VEC2"
    },
    {
      "bufferView": 0,
      "byteOffset": 206364,
      "componentType": 5125,
      "count": 22800,
      "max": [
        4516
      ],
      "min": [
        0
      ],
      "type": "SCALAR"
    },
    {
      "bufferView": 2,
      "byteOffset": 344040,
      "componentType": 5126,
      "count": 5838,
      "max": [
        2.3680200576782227,
        1.4491679668426514,
        6.2703847885131836
      ],
      "min": [
        -0.28664100170135498,
        -1.3992270231246948,
        3.8469541072845459
      ],
      "type": "VEC3"
    },
    {
      "bufferView": 2,
      "byteOffset": 414096,
      "componentType": 5126,
      "count": 5838,
      "max": [
        0.999775230884552,
        0.99967497587203979,
        0.99949109554290771
      ],
      "min": [
        -0.99985426664352417,
        -0.99794435501098633,
        -0.99889951944351196
      ],
      "type": "VEC3"
    },
    {
      "bufferView": 3,
      "byteOffset": 229360,
      "componentType": 5126,
      "count": 5838,
      "max": [
        0.99891054630279541,
        0.99915444850921631,
        0.9991108775138855,
        1
      ],
      "min": [
        -0.99975490570068359,
        -0.99990177154541016,
        -0.99956208467483521,
        -1
      ],
      "type": "VEC4"
    },
    {
      "bufferView": 1,
      "byteOffset": 114680,
      "componentType": 5126,
      "count": 5838,
      "max": [
        0.98991000652313232,
        0.99949997663497925
      ],
      "min": [
        0.00049000000581145287,
        0.00050000002374872565
      ],
      "type": "VEC2"
    },
    {
      "bufferView": 0,
      "byteOffset": 297564,
      "componentType": 5125,
      "count": 27684,
      "max": [
        5837
      ],
      "min": [
        0
      ],
      "type": "SCALAR"
    }
  ],
  "asset": {
    "extras": {
      "author": "Joshua Henderson (https://sketchfab.com/lucospade)",
      "license": "CC-BY-4.0 (http://creativecommons.org/licenses/by/4.0/)",
      "source": "https://sketchfab.com/3d-models/stylised-parrot-32460f6d852e4a0ab8df360347f2b0db",
      "title": "Stylised Parrot"
    },
    "generator": "Sketchfab-6.99.1",
    "version": "2.0"
  },
  "bufferViews": [
    {
      "buffer": 0,
      "byteLength": 408300,
      "byteOffset": 0,
      "name": "floatBufferViews",
      "target": 34963
    },
    {
      "buffer": 0,
      "byteLength": 161384,
      "byteOffset": 408300,
      "byteStride": 8,
      "name": "floatBufferViews",
      "target": 34962
    },
    {
      "buffer": 0,
      "byteLength": 484152,
      "byteOffset": 569684,
      "byteStride": 12,
      "name": "floatBufferViews",
      "target": 34962
    },
    {
      "buffer": 0,
      "byteLength": 322768,
      "byteOffset": 1053836,
      "byteStride": 16,
      "name": "floatBufferViews",
      "target": 34962
    }
  ],
  "buffers": [
    {
      "byteLength": 1376604,
      "uri": "scene.bin"
    }
  ],
  "images": [
    {
      "uri": "textures/Posed_03_Body_MAT_baseColor.png"
    },
    {
      "uri": "textures/Posed_03_Body_MAT_metallicRoughness.png"
    },
    {
      "uri": "textures/Posed_03_Body_MAT_normal.png"
    },
    {
      "uri": "textures/Posed_03_Hair_MAT_baseColor.png"
    },
    {
      "uri": "textures/Posed_03_Hair_MAT_metallicRoughness.png"
    },
    {
      "uri": "textures/Posed_03_Hair_MAT_normal.png"
    }
  ],
  "materials": [
    {
      "doubleSided": true,
      "name": "Posed_03_Body_MAT",
      "normalTexture": {
        "index": 2,
        "scale": 1,
        "texCoord": 0
      },
      "occlusionTexture": {
        "index": 1,
        "strength": 0.55524113493145633,
        "texCoord": 0
      },
      "pbrMetallicRoughness": {
        "baseColorFactor": [
          1,
          1,
          1,
          1
        ],
        "baseColorTexture": {
          "index": 0,
          "texCoord": 0
        },
        "metallicFactor": 0,
        "metallicRoughnessTexture": {
          "index": 1,
          "texCoord": 0
        },
        "roughnessFactor": 1
      }
    },
    {
      "doubleSided": true,
      "name": "Posed_03_Hair_MAT",
      "normalTexture": {
        "index": 5,
        "scale": 1,
        "texCoord": 0
      },
      "occlusionTexture": {
        "index": 4,
        "strength": 1,
        "texCoord": 0
      },
      "pbrMetallicRoughness": {
        "baseColorFactor": [
          1,
          1,
          1,
          1
        ],
        "baseColorTexture": {
          "index": 3,
          "texCoord": 0
        },
        "metallicFactor": 0,
        "metallicRoughnessTexture": {
          "index": 4,
          "texCoord": 0
        },
        "roughnessFactor": 1
      }
    },
    {
      "doubleSided": true,
      "name": "Posed_03_LeanPlane_MAT",
      "pbrMetallicRoughness": {
        "baseColorFactor": [
          1,
          1,
          1,
          1
        ],
        "metallicFactor": 1,
        "roughnessFactor": 0.59999999999999998
      }
    }
  ],
  "meshes": [
    {
      "primitives": [
        {
          "attributes": {
            "NORMAL": 1,
            "POSITION": 0,
            "TANGENT": 2,
            "TEXCOORD_0": 3
          },
          "indices": 4,
          "material": 2,
          "mode": 4
        }
      ]
    },
    {
      "primitives": [
        {
          "attributes": {
            "NORMAL": 6,
            "POSITION": 5,
            "TANGENT": 7,
            "TEXCOORD_0": 8
          },
          "indices": 9,
          "material": 0,
          "mode": 4
        }
      ]
    },
    {
      "primitives": [
        {
          "attributes": {
            "NORMAL": 11,
            "POSITION": 10,
            "TANGENT": 12,
            "TEXCOORD_0": 13
          },
          "indices": 14,
          "material": 0,
          "mode": 4
        }
      ]
    },
    {
      "primitives": [
        {
          "attributes": {
            "NORMAL": 16,
            "POSITION": 15,
            "TANGENT": 17,
            "TEXCOORD_0": 18
          },
          "indices": 19,
          "material": 1,
          "mode": 4
        }
      ]
    }
  ],
  "nodes": [
    {
      "children": [
        1
      ],
      "name": "RootNode (gltf orientation matrix)",
      "rotation": [
        -0.70710678118654746,
        -0,
        -0,
        0.70710678118654757
      ]
    },
    {
      "children": [
        2
      ],
      "matrix": [
        -0.52468442916870117,
        -0.85127872228622437,
        0.0055474410764873028,
        0,
        0.85102742910385132,
        -0.52467119693756104,
        -0.021735489368438721,
        0,
        0.021413542330265045,
        -0.0066832476295530796,
        0.9997483491897583,
        0,
        -1.46434485912323,
        -0.89426243305206299,
        0.0046132798306643963,
        1
      ],
      "name": "RootNode (model correction matrix)"
    },
    {
      "children": [
        3,
        4,
        5,
        6
      ],
      "name": "Posed_04.OBJ.cleaner.materialmerger.gles"
    },
    {
      "mesh": 0,
      "name": ""
    },
    {
      "mesh": 1,
      "name": ""
    },
    {
      "mesh": 2,
      "name": ""
    },
    {
      "mesh": 3,
      "name": ""
    }
  ],
  "samplers": [
    {
      "magFilter": 9729,
      "minFilter": 9987,
      "wrapS": 10497,
      "wrapT": 10497
    }
  ],
  "scene": 0,
  "scenes": [
    {
      "name": "OSG_Scene",
      "nodes": [
        0
      ]
    }
  ],
  "textures": [
    {
      "sampler": 0,
      "source": 0
    },
    {
      "sampler": 0,
      "source": 1
    },
    {
      "sampler": 0,
      "source": 2
    },
    {
      "sampler": 0,
      "source": 3
    },
    {
      "sampler": 0,
      "source": 4
    },
    {
      "sampler": 0,
      "source": 5
    }
  ]
}

